# xmcd CD database file
# Copyright (C) 1996 Ti Kan
#
# Track frame offsets:
# 	200
# 	23117
# 	47447
# 	68580
# 	92405
# 	117315
# 	140802
# 	163832
# 	184222
# 	204187
# 	221375
# 	239500
#
# Disc length: 3501 seconds
#
# Revision: 1
# Processed by: cddbd v1.4b41PL1 Copyright (c) Steve Scherf et al.
# Submitted via: DiscPlay 3.4.1
#
DISCID=a30dab0c
DTITLE=D'Javaheads - Starvation Box
DYEAR=1900
DGENRE=
TTITLE0=Soul Angel
TTITLE1=Keeper Of The Flame
TTITLE2=I'm Gonna Love You
TTITLE3=Out Of Touch
TTITLE4=Boogieland, Texas
TTITLE5=Chico's Blues
TTITLE6=Late Night MAgic
TTITLE7=Snow White Dress
TTITLE8=Blind Willie
TTITLE9=Beaumont
TTITLE10=Starvation Box
TTITLE11=Changes
EXTD=
EXTT0=
EXTT1=
EXTT2=
EXTT3=
EXTT4=
EXTT5=
EXTT6=
EXTT7=
EXTT8=
EXTT9=
EXTT10=
EXTT11=
PLAYORDER=
